<?xml version="1.0" encoding="iso-8859-1"?>
<!-- Generator: Adobe Illustrator 19.0.0, SVG Export Plug-In . SVG Version: 6.00 Build 0)  -->
<svg version="1.1" id="Capa_1" xmlns="http://www.w3.org/2000/svg" xmlns:xlink="http://www.w3.org/1999/xlink" x="0px" y="0px"
	 viewBox="0 0 480 480" style="enable-background:new 0 0 480 480;" xml:space="preserve" stroke="rgb(240,240,240)" fill="rgb(240,240,240)">
<g>
	<g>
		<path d="M296.004,296c-0.001,0-0.003,0-0.004,0h-8v-24h-16v24h-8c-4.417-0.001-7.999,3.579-8,7.996c0,0.001,0,0.003,0,0.004v72
			c-0.001,4.417,3.579,7.999,7.996,8c0.001,0,0.003,0,0.004,0h8v24h16v-24h8c4.417,0.001,7.999-3.579,8-7.996
			c0-0.001,0-0.003,0-0.004v-72C304.001,299.583,300.421,296.001,296.004,296z M288,368h-16v-56h16V368z"/>
	</g>
</g>
<g>
	<g>
		<path d="M360.004,336c-0.001,0-0.003,0-0.004,0h-8v-24h-16v24h-8c-4.417-0.001-7.999,3.579-8,7.996c0,0.001,0,0.003,0,0.004v56
			c-0.001,4.417,3.579,7.999,7.996,8c0.001,0,0.003,0,0.004,0h8v32h16v-32h8c4.417,0.001,7.999-3.579,8-7.996
			c0-0.001,0-0.003,0-0.004v-56C368.001,339.583,364.421,336.001,360.004,336z M352,392h-16v-40h16V392z"/>
	</g>
</g>
<g>
	<g>
		<path d="M424.004,280c-0.001,0-0.003,0-0.004,0h-8v-16h-16v16h-8c-4.417-0.001-7.999,3.579-8,7.996c0,0.001,0,0.003,0,0.004v48
			c-0.001,4.417,3.579,7.999,7.996,8c0.001,0,0.003,0,0.004,0h8v32h16v-32h8c4.417,0.001,7.999-3.579,8-7.996
			c0-0.001,0-0.003,0-0.004v-48C432.001,283.583,428.421,280.001,424.004,280z M416,328h-16v-32h16V328z"/>
	</g>
</g>
<g>
	<g>
		<path d="M344,208c-75.111,0-136,60.889-136,136s60.889,136,136,136s136-60.889,136-136C479.916,268.924,419.076,208.084,344,208z
			 M344,464c-66.274,0-120-53.726-120-120s53.726-120,120-120s120,53.726,120,120C463.926,410.244,410.244,463.926,344,464z"/>
	</g>
</g>
<g>
	<g>
		<path d="M430.859,163.883l-24-40c-1.447-2.408-4.05-3.882-6.859-3.883h-64c-2.809,0.001-5.412,1.475-6.859,3.883l-24,40
			c-2.274,3.787-1.048,8.701,2.739,10.976c1.244,0.747,2.669,1.142,4.12,1.142h112c4.418,0.001,8-3.579,8.001-7.997
			C432.001,166.552,431.607,165.127,430.859,163.883z M326.129,160l14.402-24h54.937l14.402,24H326.129z"/>
	</g>
</g>
<g>
	<g>
		<path d="M286.859,163.883l-24-40c-1.447-2.408-4.05-3.882-6.859-3.883h-64c-2.809,0.001-5.412,1.475-6.859,3.883l-24,40
			c-2.274,3.787-1.048,8.701,2.739,10.976c1.245,0.747,2.669,1.142,4.12,1.142h112c2.882,0.002,5.541-1.547,6.961-4.055
			C288.383,169.436,288.344,166.356,286.859,163.883z M182.129,160l14.402-24h54.937l14.402,24H182.129z"/>
	</g>
</g>
<g>
	<g>
		<path d="M358.859,91.883l-24-40c-1.447-2.408-4.05-3.882-6.859-3.883h-64c-2.809,0.001-5.412,1.475-6.859,3.883l-24,40
			c-2.274,3.787-1.048,8.701,2.739,10.976c1.244,0.747,2.669,1.142,4.12,1.142h112c4.418,0.001,8-3.579,8.001-7.997
			C360.001,94.552,359.607,93.127,358.859,91.883z M254.129,88l14.402-24h54.937l14.402,24H254.129z"/>
	</g>
</g>
<g>
	<g>
		<rect x="112" y="144" width="24" height="16"/>
	</g>
</g>
<g>
	<g>
		<rect x="456" y="144" width="24" height="16"/>
	</g>
</g>
<g>
	<g>
		<rect x="164.04" y="26.014" transform="matrix(0.7071 -0.7071 0.7071 0.7071 23.5093 132.7849)" width="16" height="24"/>
	</g>
</g>
<g>
	<g>
		<rect x="407.966" y="33.98" transform="matrix(0.7071 -0.7071 0.7071 0.7071 93.3211 309.2567)" width="24" height="16"/>
	</g>
</g>
<g>
	<g>
		<rect x="288" width="16" height="24"/>
	</g>
</g>
<g>
	<g>
		<path d="M72,232c-41.047,0-72,17.195-72,40v165c0,24.109,31.625,43,72,43c40.375,0,72-18.891,72-43V272
			C144,249.195,113.047,232,72,232z M128,437c0,12.773-23,27-56,27s-56-14.227-56-27v-12.694C32.601,435.188,52.161,440.67,72,440
			c19.839,0.67,39.399-4.812,56-15.694V437z M128,397c0,12.773-23,27-56,27s-56-14.227-56-27v-12.672
			C32.605,395.199,52.164,400.673,72,400c19.836,0.673,39.395-4.801,56-15.672V397z M128,357c0,12.773-23,27-56,27s-56-14.227-56-27
			v-12.694C32.601,355.188,52.161,360.67,72,360c19.839,0.67,39.399-4.812,56-15.694V357z M128,317c0,12.773-23,27-56,27
			s-56-14.227-56-27v-12.672C32.605,315.199,52.164,320.673,72,320c19.836,0.673,39.395-4.801,56-15.672V317z M128,277
			c0,12.773-23,27-56,27s-56-14.227-56-27v-5c0-11.328,23.949-24,56-24s56,12.672,56,24V277z"/>
	</g>
</g>
<g>
</g>
<g>
</g>
<g>
</g>
<g>
</g>
<g>
</g>
<g>
</g>
<g>
</g>
<g>
</g>
<g>
</g>
<g>
</g>
<g>
</g>
<g>
</g>
<g>
</g>
<g>
</g>
<g>
</g>
</svg>
