<?xml version="1.0" encoding="iso-8859-1"?>
<!-- Generator: Adobe Illustrator 19.0.0, SVG Export Plug-In . SVG Version: 6.00 Build 0)  -->
<svg version="1.1" id="Capa_1" xmlns="http://www.w3.org/2000/svg" xmlns:xlink="http://www.w3.org/1999/xlink" x="0px" y="0px"
	 viewBox="0 0 480 480" style="enable-background:new 0 0 480 480;" xml:space="preserve" stroke="rgb(240,240,240)" fill="rgb(240,240,240)">
<g>
	<g>
		<path d="M100.012,192h16c0.014-13.249,10.751-23.986,24-24v-16C117.931,152.026,100.038,169.919,100.012,192z"/>
	</g>
</g>
<g>
	<g>
		<path d="M234.875,187.891c-11.188-20.787-28.121-37.916-48.779-49.342l16.314-21.752l-12.797-9.594l-18.94,25.253
			c-7.385-2.168-14.984-3.529-22.662-4.062V104h-16v24.201c-6.083,0.245-12.135,0.993-18.094,2.236l-15.25-22.875l-13.312,8.875
			l12.699,19.049c-22.941,9.73-38.515,28.357-52.906,52.404c-1.516,2.53-1.516,5.689,0,8.219
			c24.001,40.112,52.737,58.646,92.693,59.781c0.727,0.024,1.438,0.11,2.17,0.11c0.21,0,0.413-0.03,0.623-0.032
			c0.379,0.003,0.742,0.032,1.124,0.032c47.539,0,71.606-23.945,93.117-59.891C236.391,193.579,236.391,190.421,234.875,187.891z
			 M80.818,216.258c-7.419-7.289-13.941-15.438-19.428-24.274c5.73-9.598,12.585-18.477,20.42-26.45
			C74.44,181.569,74.081,199.948,80.818,216.258z M187.633,198.015c-2.987,23.646-22.887,41.511-46.717,41.939
			c-2.396-0.017-4.66-0.222-6.958-0.378C110.007,236.513,92.05,216.147,92.012,192c0.036-26.136,20.964-47.446,47.095-47.954
			c2.396,0.017,4.66,0.222,6.958,0.378C172.342,147.744,190.953,171.737,187.633,198.015z M198.213,218.466
			c7.37-16.034,7.73-34.414,0.992-50.724c7.419,7.289,13.941,15.438,19.428,24.274C212.903,201.614,206.048,210.493,198.213,218.466
			z"/>
	</g>
</g>
<g>
	<g>
		<path d="M386.375,187.156c-5.26-7.121-11.809-13.193-19.306-17.9l10.845-11.857l-11.805-10.797L351.477,162.6
			c-3.755-1.037-7.59-1.759-11.465-2.161V144h-16v16.41c-4.258,0.306-8.48,1.003-12.611,2.081l-13.288-15.663l-12.203,10.344
			l10.262,12.096c-7.184,4.82-13.456,10.876-18.523,17.888c-2.184,2.86-2.184,6.828,0,9.688
			c12.569,17.931,33.443,28.178,55.316,27.156c21.336,0.95,41.608-9.357,53.41-27.156
			C388.559,193.984,388.559,190.016,386.375,187.156z M311.532,204.334c-6.609-2.747-12.492-6.988-17.188-12.389
			c4.645-5.668,10.652-10.064,17.459-12.779C306.848,186.796,306.742,196.6,311.532,204.334z M332.012,200c-4.418,0-8-3.582-8-8
			s3.582-8,8-8s8,3.582,8,8C340.007,196.416,336.428,199.996,332.012,200z M352.221,204.834c4.955-7.63,5.061-17.434,0.271-25.168
			c6.609,2.747,12.492,6.988,17.188,12.389C365.034,197.722,359.027,202.119,352.221,204.834z"/>
	</g>
</g>
<g>
	<g>
		<path d="M228.012,0C167.786,0.677,111.667,30.657,77.621,80.341C16.031,114.566-6.152,192.24,28.073,253.83
			c4.876,8.775,10.771,16.944,17.562,24.337C55.483,311.981,73.53,342.839,98.174,368h-6.163c-4.417-0.001-7.999,3.579-8,7.996
			c0,0.001,0,0.003,0,0.004v96c-0.001,4.417,3.579,7.999,7.996,8c0.001,0,0.003,0,0.004,0h80c13.249,0.006,23.994-10.729,24-23.978
			c0.003-5.913-2.179-11.619-6.125-16.022c4.83-5.149,6.983-12.255,5.823-19.218c10.642,2.09,21.457,3.167,32.302,3.218
			c105.871,0,192-95.102,192-212S333.883,0,228.012,0z M28.012,192c0.069-61.827,50.173-111.931,112-112
			c61.856,0,112,50.144,112,112s-50.144,112-112,112S28.012,253.856,28.012,192z M156.012,318.889V368h-32v-49.111
			c5.305,0.704,10.649,1.075,16,1.111C145.363,319.964,150.707,319.593,156.012,318.889z M70.519,299.34
			c11.528,7.47,24.189,13.024,37.493,16.447v39.308C92.438,338.775,79.759,319.92,70.519,299.34z M148.156,416l21.903-0.394
			c0.631,0.215,1.287,0.348,1.953,0.394c4.416,0.004,7.996,3.584,8,8c-0.026,3.474-2.315,6.526-5.643,7.523v0L147.867,432l0.289,16
			l21.903-0.394c0.631,0.215,1.287,0.348,1.953,0.394c4.418,0,8,3.582,8,8s-3.582,8-8,8h-72v-80h72c4.416,0.004,7.996,3.584,8,8
			c-0.026,3.474-2.315,6.526-5.643,7.523L147.867,400L148.156,416z M228.012,408c-11.856-0.04-23.67-1.425-35.214-4.128
			c2.094-3.607,3.202-7.701,3.214-11.872c-0.014-13.249-10.751-23.986-24-24v-52.212c68.447-17.359,109.862-86.918,92.503-155.365
			S177.597,50.561,109.15,67.92c-0.153,0.039-0.307,0.078-0.46,0.118C139.681,35.113,182.797,16.31,228.012,16
			c97.047,0,176,87.922,176,196S325.059,408,228.012,408z"/>
	</g>
</g>
<g>
	<g>
		<path d="M271.016,329.75c-20.419,16.5-49.589,16.5-70.008,0l-9.992,12.5c26.256,21.187,63.736,21.187,89.992,0L271.016,329.75z"/>
	</g>
</g>
<g>
	<g>
		<rect x="436.012" y="464" width="32" height="16"/>
	</g>
</g>
<g>
	<g>
		<rect x="388.012" y="464" width="32" height="16"/>
	</g>
</g>
<g>
	<g>
		<rect x="340.012" y="464" width="32" height="16"/>
	</g>
</g>
<g>
</g>
<g>
</g>
<g>
</g>
<g>
</g>
<g>
</g>
<g>
</g>
<g>
</g>
<g>
</g>
<g>
</g>
<g>
</g>
<g>
</g>
<g>
</g>
<g>
</g>
<g>
</g>
<g>
</g>
</svg>
