<?xml version="1.0" encoding="iso-8859-1"?>
<!-- Generator: Adobe Illustrator 19.0.0, SVG Export Plug-In . SVG Version: 6.00 Build 0)  -->
<svg version="1.1" id="Capa_1" xmlns="http://www.w3.org/2000/svg" xmlns:xlink="http://www.w3.org/1999/xlink" x="0px" y="0px"
	 viewBox="0 0 480 480" style="enable-background:new 0 0 480 480;" xml:space="preserve" stroke="rgb(240,240,240)" fill="rgb(240,240,240)">
<g>
	<g>
		<path d="M452,0H28C12.544,0.019,0.019,12.544,0,28v444c0,4.418,3.582,8,8,8h464c4.418,0,8-3.582,8-8V28
			C479.981,12.544,467.456,0.019,452,0z M296,16h80v88c0,22.091-17.909,40-40,40c-22.091,0-40-17.909-40-40V16z M200,16h80v88
			c0,22.091-17.909,40-40,40c-22.091,0-40-17.909-40-40V16z M104,16h80v88c0,22.091-17.909,40-40,40s-40-17.909-40-40V16z M16,28
			c0.007-6.624,5.376-11.993,12-12h60v92c0,19.882-16.118,36-36,36s-36-16.118-36-36V28z M464,464H16V272h448V464z M464,256H16
			V145.435c20.582,19.895,53.395,19.338,73.29-1.244c2.928-3.03,5.477-6.405,7.588-10.052c16.565,26.022,51.088,33.688,77.11,17.123
			c7.374-4.694,13.544-11.054,18.012-18.567c15.762,26.51,50.031,35.222,76.54,19.46c8.008-4.762,14.698-11.451,19.46-19.46
			c15.767,26.513,50.042,35.223,76.554,19.456c7.513-4.468,13.873-10.638,18.567-18.012c14.344,24.773,46.054,33.227,70.827,18.884
			c3.646-2.111,7.022-4.66,10.052-7.588V256z M464,108c0,19.882-16.118,36-36,36s-36-16.118-36-36V16h60
			c6.624,0.007,11.993,5.376,12,12V108z"/>
	</g>
</g>
<g>
	<g>
		<path d="M96,328h-8v-24H72v24h-8c-4.418,0-8,3.582-8,8v72c0,4.418,3.582,8,8,8h8v24h16v-24h8c4.418,0,8-3.582,8-8v-72
			C104,331.582,100.418,328,96,328z M88,400H72v-56h16V400z"/>
	</g>
</g>
<g>
	<g>
		<path d="M176,320h-8v-24h-16v24h-8c-4.418,0-8,3.582-8,8v56c0,4.418,3.582,8,8,8h8v32h16v-32h8c4.418,0,8-3.582,8-8v-56
			C184,323.582,180.418,320,176,320z M168,376h-16v-40h16V376z"/>
	</g>
</g>
<g>
	<g>
		<path d="M256,304h-8v-16h-16v16h-8c-4.418,0-8,3.582-8,8v48c0,4.418,3.582,8,8,8h8.003L232,400h16l0.003-32H256
			c4.418,0,8-3.582,8-8v-48C264,307.582,260.418,304,256,304z M248,352h-16v-32h16V352z"/>
	</g>
</g>
<g>
	<g>
		<path d="M336,328h-8v-24h-16v24h-8c-4.418,0-8,3.582-8,8v72c0,4.418,3.582,8,8,8h8v24h16v-24h8c4.418,0,8-3.582,8-8v-72
			C344,331.582,340.418,328,336,328z M328,400h-16v-56h16V400z"/>
	</g>
</g>
<g>
	<g>
		<path d="M416,320h-8v-16h-16v16h-8c-4.418,0-8,3.582-8,8v48c0,4.418,3.582,8,8,8h8v40h16v-40h8c4.418,0,8-3.582,8-8v-48
			C424,323.582,420.418,320,416,320z M408,368h-16v-32h16V368z"/>
	</g>
</g>
<g>
</g>
<g>
</g>
<g>
</g>
<g>
</g>
<g>
</g>
<g>
</g>
<g>
</g>
<g>
</g>
<g>
</g>
<g>
</g>
<g>
</g>
<g>
</g>
<g>
</g>
<g>
</g>
<g>
</g>
</svg>
